<svg version="1.1" id="Layer_1" xmlns="http://www.w3.org/2000/svg" xmlns:xlink="http://www.w3.org/1999/xlink" x="0px" y="0px"
	 width="100%" viewBox="0 0 698 408" enable-background="new 0 0 698 408" xml:space="preserve">
<path fill="#FFFFFF" opacity="1.000000" stroke="none" 
	d="
M295.000000,409.000000 
	C292.629425,409.000000 290.258881,409.000000 287.745056,408.701355 
	C286.066345,405.586792 284.693542,402.666260 282.962708,399.976013 
	C278.979828,393.785461 276.794556,385.409180 266.856262,386.105621 
	C266.691193,386.117188 266.527405,386.146973 266.000000,386.215210 
	C266.000000,393.775177 266.000000,401.387604 266.000000,409.000000 
	C263.958344,409.000000 261.916656,409.000000 259.784424,408.616943 
	C259.464996,407.642181 259.037415,407.050903 259.036133,406.458679 
	C259.000122,389.836792 259.007202,373.214752 259.007202,356.389191 
	C260.263153,356.118622 261.423462,355.868652 262.583771,355.618652 
	C262.563049,355.468658 262.542328,355.318634 262.521576,355.168640 
	C236.514938,355.168640 210.508301,355.168640 184.501663,355.168640 
	C191.633530,356.753967 196.582947,360.933258 197.853378,368.045044 
	C199.293777,376.108337 196.186249,382.678345 188.634537,386.853333 
	C190.141693,389.231567 191.621857,391.166931 192.676758,393.311432 
	C195.223572,398.488953 197.571747,403.764160 200.000000,409.000000 
	C196.307098,409.000000 192.614182,409.000000 188.762390,408.698486 
	C185.904892,403.270691 183.013763,398.234253 180.568039,392.990051 
	C178.580246,388.727753 175.927490,386.711243 171.000000,388.527130 
	C171.000000,395.371948 171.000000,402.185974 171.000000,409.000000 
	C167.969406,409.000000 164.938812,409.000000 161.801025,408.616943 
	C161.464890,407.641022 161.037231,407.048645 161.035950,406.455322 
	C160.999924,389.810730 161.007004,373.165985 161.007004,356.318939 
	C162.621017,356.067444 164.053970,355.844208 165.486923,355.620941 
	C165.465637,355.518341 165.444351,355.415771 165.423065,355.313171 
	C156.432907,355.313171 147.442764,355.313171 139.534958,355.313171 
	C140.947250,357.910828 142.902542,360.577393 143.909561,363.563721 
	C145.700089,368.873596 147.045288,374.346466 148.344315,379.806458 
	C150.654358,389.515869 152.790894,399.266571 155.000000,409.000000 
	C151.969406,409.000000 148.938812,409.000000 145.751541,408.667358 
	C145.064224,407.349915 144.293182,406.423004 144.039734,405.371368 
	C141.181976,393.513611 141.203293,393.508545 129.057373,393.999237 
	C128.891983,394.005920 128.682159,393.934326 128.567307,394.010803 
	C127.498833,394.722046 125.748970,395.279633 125.509735,396.216949 
	C124.437485,400.417816 123.796577,404.728760 123.000000,409.000000 
	C119.638710,409.000000 116.277428,409.000000 112.780258,408.659119 
	C112.662819,406.778961 112.387810,405.167389 112.746452,403.711975 
	C115.435623,392.798859 117.892441,381.807343 121.173012,371.069855 
	C122.857971,365.554901 121.959900,358.576416 129.228699,355.239197 
	C93.498856,355.239197 58.541019,355.239197 23.583179,355.239197 
	C29.719088,356.384766 35.383076,358.314789 37.319756,364.937531 
	C39.124607,371.109406 38.592297,377.086548 33.059387,381.481995 
	C42.064281,390.760406 39.957905,401.678589 28.476206,407.161865 
	C28.108681,407.337372 28.149523,408.368011 28.000000,409.000000 
	C19.006273,409.000000 10.012547,409.000000 1.014115,409.000000 
	C1.009410,273.101074 1.009410,137.202133 1.009410,1.000000 
	C65.020576,1.000000 129.041626,1.000000 193.405075,1.334194 
	C193.459732,2.776446 193.171997,3.884504 192.506927,5.202972 
	C192.087387,5.909479 192.008392,6.405569 192.008301,6.901673 
	C191.997055,67.101143 191.986481,127.300621 192.023941,187.500061 
	C192.024673,188.674255 192.593430,189.848099 192.940430,191.487305 
	C193.637329,200.464905 194.383148,208.971741 194.898438,217.492493 
	C195.099319,220.814407 196.786377,221.234970 199.539276,220.825027 
	C206.319550,219.815384 213.116959,218.919678 219.910828,218.002930 
	C227.525131,216.975464 235.169830,216.135803 242.744766,214.874817 
	C245.340714,214.442673 247.073975,213.123230 246.348877,209.425339 
	C245.028671,202.692566 244.622864,195.780487 243.890930,188.481003 
	C243.964981,127.824486 243.990585,67.630180 243.962021,7.435901 
	C243.961304,5.925393 243.362869,4.415168 243.025330,2.587673 
	C243.004974,1.847023 243.002487,1.423511 243.000000,1.000000 
	C394.917877,1.000000 546.835754,1.000000 699.000000,1.000000 
	C699.000000,118.687447 699.000000,236.375061 698.577637,354.531342 
	C696.597473,355.000000 695.039612,355.000000 693.481689,355.000000 
	C693.477600,355.333344 693.473511,355.666656 693.469482,356.000000 
	C695.312988,356.000000 697.156494,356.000000 699.000000,356.000000 
	C699.000000,357.714355 699.000000,359.428711 698.617065,361.224609 
	C692.985107,361.537445 687.737793,361.828217 682.486389,361.979065 
	C678.983215,362.079712 675.597717,361.916687 674.700195,366.617798 
	C673.932068,370.641144 676.566956,372.264526 679.194702,374.008362 
	C683.750854,377.032043 688.394043,379.927429 692.898315,383.025543 
	C695.053284,384.507751 696.973450,386.331146 699.000000,388.000000 
	C699.000000,392.356903 699.000000,396.713806 698.701416,401.247437 
	C696.059875,403.333130 693.681091,405.201324 691.409302,407.191498 
	C691.033325,407.520874 691.124634,408.383698 691.000000,409.000000 
	C683.979065,409.000000 676.958069,409.000000 669.806641,408.630157 
	C669.407715,406.266907 669.139282,404.273468 668.833191,401.999969 
	C674.388855,401.999969 679.293884,402.567780 683.974609,401.788300 
	C686.810181,401.316040 690.472290,399.340912 691.642090,396.986969 
	C693.068237,394.117249 692.072815,390.536194 688.147339,388.495483 
	C683.462769,386.060211 678.992859,383.097534 674.781921,379.899963 
	C671.059631,377.073425 666.844360,374.009216 667.141418,368.643250 
	C667.309448,365.607758 668.170044,362.031097 670.045959,359.828644 
	C672.017761,357.513672 675.573853,356.548126 678.039612,355.209076 
	C651.877319,355.209076 625.205933,355.209076 597.978333,355.209076 
	C607.870789,358.918976 611.995361,364.671448 611.999634,374.200653 
	C612.001831,379.031677 611.975647,383.862823 612.005371,388.693665 
	C612.057068,397.100555 609.515625,403.974915 601.124268,407.515015 
	C600.911804,407.604645 601.033936,408.487213 601.000000,409.000000 
	C595.977905,409.000000 590.955811,409.000000 585.756226,408.698120 
	C579.534119,405.259399 575.548584,400.279663 574.395508,393.703918 
	C573.573669,389.017120 574.152405,384.094330 573.986206,379.281006 
	C573.614563,368.514954 575.746094,359.177307 588.168274,355.231506 
	C528.437500,355.231506 469.490967,355.231506 409.908600,355.231506 
	C419.804504,358.828766 423.995636,364.673096 423.999634,374.228577 
	C424.001678,379.056274 423.974152,383.884125 424.005737,388.711609 
	C424.060760,397.117798 421.502991,403.977478 413.123260,407.516083 
	C412.911163,407.605652 413.033600,408.487610 413.000000,409.000000 
	C407.977905,409.000000 402.955811,409.000000 397.756226,408.698090 
	C395.048859,406.229004 392.132660,404.376038 390.064728,401.833221 
	C384.763428,395.314362 386.204620,387.358032 385.973938,379.761810 
	C385.643799,368.890533 387.480255,359.292786 400.465118,355.134705 
	C377.043396,355.134705 354.739166,355.134705 332.717712,355.134705 
	C332.717712,357.437683 332.717712,359.605988 332.717712,362.000061 
	C326.965576,362.000061 321.462128,361.714264 316.019653,362.164856 
	C314.264038,362.310181 311.640106,364.101349 311.203369,365.645782 
	C310.124481,369.460815 310.081665,373.568848 309.570312,378.012207 
	C317.815674,378.012207 325.236359,378.012207 332.811737,378.012207 
	C332.811737,380.140350 332.811737,381.877441 332.811737,384.004822 
	C325.218079,384.004822 317.799286,384.004822 310.005096,384.004822 
	C310.005096,388.005157 309.718231,391.655304 310.079437,395.240173 
	C310.507629,399.489807 312.193817,402.549561 317.540222,402.093262 
	C322.617401,401.659943 327.760559,402.000000 333.000000,402.000000 
	C333.000000,404.690125 333.000000,406.845062 333.000000,409.000000 
	C325.645752,409.000000 318.291504,409.000000 310.755981,408.705627 
	C304.316437,404.600525 302.378448,399.020599 302.889191,391.847076 
	C303.395599,384.734772 303.256958,377.546448 302.929443,370.413147 
	C302.586060,362.934998 305.075592,357.598785 313.774536,355.207336 
	C301.514160,355.207336 290.529877,355.207336 279.545593,355.207336 
	C285.829468,356.366547 291.422119,358.951965 292.847382,365.511932 
	C295.116455,375.955811 292.485809,380.564606 282.831146,385.753571 
	C284.393524,388.175079 286.174438,390.476227 287.461823,393.026520 
	C290.114105,398.280548 292.502838,403.667664 295.000000,409.000000 
M505.705261,72.179710 
	C503.184296,71.803749 500.584991,70.838448 498.156952,71.161316 
	C490.591919,72.167274 483.056915,73.488716 475.573608,75.001213 
	C459.627014,78.224251 445.228790,84.817513 432.928345,95.590034 
	C425.251465,102.313316 417.765228,109.254265 409.856628,116.401909 
	C405.736908,112.262192 401.727234,108.315361 397.808563,104.280167 
	C385.184387,91.280617 370.099030,82.353844 352.867584,76.925598 
	C338.531189,72.409355 323.880493,69.996414 308.848969,71.074944 
	C300.569366,71.669022 292.308044,72.809158 284.125336,74.210335 
	C282.534851,74.482681 280.381622,76.972931 280.160645,78.659355 
	C279.600616,82.932053 279.997894,87.329292 279.999146,91.676651 
	C280.002869,104.619743 280.000488,117.562843 280.000488,131.237320 
	C303.426300,119.262108 326.476959,118.517601 349.094086,131.771866 
	C371.592987,144.956863 383.008362,165.206131 384.935120,190.990463 
	C386.473175,190.990463 387.320526,191.130127 388.106537,190.969589 
	C400.542603,188.429901 412.877197,185.101868 425.432251,183.533905 
	C434.483887,182.403458 438.429443,178.696274 441.067047,169.902679 
	C443.464966,161.908234 448.823151,154.532089 453.941620,147.679031 
	C464.840088,133.087357 480.064301,125.316566 497.937103,123.112854 
	C507.714111,121.907356 508.537384,121.481560 507.011780,111.892937 
	C506.907806,111.239426 506.888702,110.572418 506.943420,108.992378 
	C506.957367,98.120171 506.999847,87.247810 506.943726,76.375961 
	C506.937744,75.217079 506.355591,74.061172 505.705261,72.179710 
M437.817902,311.716675 
	C437.880463,278.282227 437.950104,244.847763 437.960724,211.413284 
	C437.960968,210.649460 437.293488,209.885437 436.084106,208.971848 
	C419.414520,211.955765 402.732208,214.871368 386.084198,217.971176 
	C381.873688,218.755173 377.750305,220.053436 375.741547,224.542877 
	C371.205353,234.680862 363.984161,242.591370 355.183380,249.178055 
	C340.942017,259.836639 324.511810,264.127197 307.256927,262.658752 
	C292.125122,261.370911 278.607544,254.783630 267.397827,243.966522 
	C262.856201,239.583923 257.323669,236.431412 250.652893,237.045685 
	C237.762436,238.232727 224.892181,239.646378 212.023361,241.055756 
	C208.849091,241.403397 205.712509,242.095428 201.936630,242.734406 
	C213.343140,266.478485 228.767609,286.331055 251.639969,298.673065 
	C295.976227,322.597046 340.278625,322.017059 384.001648,294.358887 
	C384.001648,299.916840 383.970978,304.388641 384.010742,308.859802 
	C384.046661,312.902161 385.391174,315.145264 390.184509,315.106476 
	C403.622040,314.997742 417.066620,315.583649 430.500275,315.373413 
	C432.486877,315.342285 436.765747,316.879425 437.817902,311.716675 
M417.000000,381.510742 
	C416.646179,377.286835 416.852936,372.913422 415.777527,368.881989 
	C414.745544,365.013397 411.906647,362.186340 407.304932,361.976257 
	C402.202728,361.743378 397.177612,361.719086 395.128906,367.663727 
	C391.846130,377.189240 391.845856,386.812347 395.129547,396.337677 
	C397.178955,402.282562 402.204926,402.256409 407.306458,402.023529 
	C411.908325,401.813538 414.746399,398.985107 415.778076,395.116547 
	C416.853180,391.085022 416.646332,386.711639 417.000000,381.510742 
M584.452209,398.959595 
	C592.065369,405.367065 602.022034,403.128235 603.787964,393.656342 
	C605.216431,385.994110 604.517761,377.807159 603.854004,369.929565 
	C603.435486,364.962585 599.883240,362.000946 594.432007,361.976898 
	C587.050659,361.944305 583.789001,363.322357 582.419983,369.220734 
	C580.162964,378.945068 579.488037,388.821136 584.452209,398.959595 
M266.000000,369.539062 
	C266.000000,372.961273 266.000000,376.383484 266.000000,379.999146 
	C270.356445,379.999146 274.160736,380.189880 277.938202,379.952972 
	C283.164612,379.625214 285.783295,376.926819 285.999908,372.145081 
	C286.288422,365.776520 284.399139,362.756104 278.845459,362.111328 
	C274.665771,361.626099 270.384521,362.015411 266.000000,362.015411 
	C266.000000,364.607056 266.000000,366.583496 266.000000,369.539062 
M11.052821,385.753845 
	C11.052821,390.474457 11.052821,395.195038 11.052821,399.999481 
	C14.635215,399.999481 17.653757,400.333740 20.563005,399.912750 
	C24.003603,399.414856 27.702335,398.562897 27.963533,394.003998 
	C28.196562,389.936829 27.155535,386.442017 22.334082,385.868011 
	C18.809929,385.448425 15.251191,385.319336 11.052821,385.753845 
M179.078506,379.975861 
	C179.495605,379.722748 179.882141,379.350464 180.334427,379.234497 
	C186.402267,377.678467 187.554672,376.126648 186.998993,370.166229 
	C186.642960,366.347015 183.410599,364.059113 178.252960,364.004120 
	C175.977097,363.979828 173.700775,364.000000 171.000000,364.000000 
	C171.000000,367.266632 170.999817,370.200684 171.000031,373.134766 
	C171.000504,379.983459 171.000580,379.983459 179.078506,379.975861 
M11.000019,373.380310 
	C10.597095,376.000153 11.324512,377.368469 14.365225,377.055908 
	C16.991877,376.785950 19.904461,377.655579 22.254059,376.809265 
	C24.459810,376.014801 27.075846,373.919006 27.675709,371.860809 
	C28.176222,370.143494 26.479059,366.275513 24.951382,365.764923 
	C20.651876,364.327850 15.937893,364.130859 11.000000,363.386566 
	C11.000000,367.163208 11.000000,369.791992 11.000019,373.380310 
M136.002762,372.450989 
	C135.300369,369.687775 134.597977,366.924591 133.895584,364.161377 
	C133.636642,364.170959 133.377701,364.180511 133.118759,364.190063 
	C131.447083,371.007050 129.775421,377.824036 128.083893,384.721985 
	C131.760696,384.721985 135.327789,384.721985 139.329117,384.721985 
	C138.161865,380.668671 137.100433,376.982788 136.002762,372.450989 
z"/>
<path fill="#1CB997" opacity="1.000000" stroke="none" 
	d="
M192.884277,4.992563 
	C193.171997,3.884504 193.459732,2.776446 193.873734,1.334194 
	C210.020889,1.000000 226.041794,1.000000 242.531342,1.000000 
	C243.002487,1.423511 243.004974,1.847023 242.998932,3.061535 
	C243.001450,62.956566 243.002213,122.060600 243.057861,181.164597 
	C243.060303,183.757706 243.564865,186.350357 243.835541,188.943222 
	C244.622864,195.780487 245.028671,202.692566 246.348877,209.425339 
	C247.073975,213.123230 245.340714,214.442673 242.744766,214.874817 
	C235.169830,216.135803 227.525131,216.975464 219.910828,218.002930 
	C213.116959,218.919678 206.319550,219.815384 199.539276,220.825027 
	C196.786377,221.234970 195.099319,220.814407 194.898438,217.492493 
	C194.383148,208.971741 193.637329,200.464905 192.994690,191.020142 
	C193.003281,172.459274 193.009720,154.830765 192.996628,137.202271 
	C192.963913,93.132370 192.922318,49.062466 192.884277,4.992563 
z"/>
<path fill="#000000" opacity="1.000000" stroke="none" 
	d="
M413.468689,409.000000 
	C413.033600,408.487610 412.911163,407.605652 413.123260,407.516083 
	C421.502991,403.977478 424.060760,397.117798 424.005737,388.711609 
	C423.974152,383.884125 424.001678,379.056274 423.999634,374.228577 
	C423.995636,364.673096 419.804504,358.828766 409.908600,355.231506 
	C469.490967,355.231506 528.437500,355.231506 588.168274,355.231506 
	C575.746094,359.177307 573.614563,368.514954 573.986206,379.281006 
	C574.152405,384.094330 573.573669,389.017120 574.395508,393.703918 
	C575.548584,400.279663 579.534119,405.259399 585.289307,408.698120 
	C578.312378,409.000000 571.624695,409.000000 564.121582,408.616943 
	C563.537415,406.641663 563.958618,405.050629 563.968872,403.456970 
	C564.031311,393.795532 564.000000,384.133453 564.000000,374.471588 
	C564.000000,368.365906 564.000000,362.260193 564.000000,356.289795 
	C561.355469,356.289795 559.285645,356.289795 557.000000,356.289795 
	C557.000000,374.052490 557.000000,391.526245 557.000000,409.000000 
	C549.645752,409.000000 542.291504,409.000000 534.121704,408.616943 
	C533.537415,403.309570 533.920044,398.386719 533.968689,393.460602 
	C534.071533,383.036102 534.000000,372.609894 534.000000,361.813660 
	C539.348999,361.813660 544.106140,361.813660 549.052307,361.813660 
	C548.954529,359.680359 548.874695,357.939636 548.798462,356.276672 
	C536.329834,356.276672 524.245667,356.276672 512.283447,356.276672 
	C512.283447,358.297424 512.283447,360.036591 512.283447,362.170593 
	C517.306274,362.170593 522.056641,362.170593 527.000000,362.170593 
	C527.000000,378.049103 527.000000,393.524567 527.000000,409.000000 
	C516.979126,409.000000 506.958221,409.000000 496.181702,408.708862 
	C499.829681,405.035706 504.656799,401.497711 504.855133,395.554962 
	C505.291809,382.470734 504.990692,369.361938 504.990692,356.239014 
	C502.437256,356.239014 500.371948,356.239014 498.138153,356.239014 
	C498.082916,357.102295 498.006927,357.740784 498.006470,358.379333 
	C497.998810,369.532104 497.946533,380.685211 498.020111,391.837494 
	C498.064636,398.583252 492.079712,404.789734 483.841614,402.023285 
	C478.304413,400.163879 476.035645,396.890564 476.011261,390.210754 
	C475.970093,378.932404 476.000000,367.653778 476.000000,356.189819 
	C473.538971,356.189819 471.471649,356.189819 469.003723,356.189819 
	C469.003723,368.972351 468.589966,381.601318 469.201263,394.180481 
	C469.456451,399.431427 472.024750,404.456909 477.573853,406.938568 
	C478.226105,407.230255 478.533020,408.294098 479.000000,409.000000 
	C473.977905,409.000000 468.955811,409.000000 463.128784,408.630127 
	C462.593323,406.268463 462.862762,404.276642 463.170715,402.000000 
	C457.955505,402.000000 453.483643,402.000092 449.011810,401.999969 
	C441.547516,401.999725 440.026093,400.456116 440.004974,392.745178 
	C439.982635,384.591583 440.000000,376.437866 440.000000,368.284210 
	C440.000000,364.203949 440.000000,360.123657 440.000000,356.163727 
	C437.345673,356.163727 435.389832,356.163727 433.000000,356.163727 
	C433.000000,368.590240 433.052856,380.858490 432.976440,393.125885 
	C432.941193,398.785004 433.149200,404.227173 438.882294,407.495819 
	C439.127625,407.635712 438.969940,408.482513 439.000000,409.000000 
	C430.645782,409.000000 422.291534,409.000000 413.468689,409.000000 
z"/>
<path fill="#000000" opacity="1.000000" stroke="none" 
	d="
M333.468567,409.000000 
	C333.000000,406.845062 333.000000,404.690125 333.000000,402.000000 
	C327.760559,402.000000 322.617401,401.659943 317.540222,402.093262 
	C312.193817,402.549561 310.507629,399.489807 310.079437,395.240173 
	C309.718231,391.655304 310.005096,388.005157 310.005096,384.004822 
	C317.799286,384.004822 325.218079,384.004822 332.811737,384.004822 
	C332.811737,381.877441 332.811737,380.140350 332.811737,378.012207 
	C325.236359,378.012207 317.815674,378.012207 309.570312,378.012207 
	C310.081665,373.568848 310.124481,369.460815 311.203369,365.645782 
	C311.640106,364.101349 314.264038,362.310181 316.019653,362.164856 
	C321.462128,361.714264 326.965576,362.000061 332.717712,362.000061 
	C332.717712,359.605988 332.717712,357.437683 332.717712,355.134705 
	C354.739166,355.134705 377.043396,355.134705 400.465118,355.134705 
	C387.480255,359.292786 385.643799,368.890533 385.973938,379.761810 
	C386.204620,387.358032 384.763428,395.314362 390.064728,401.833221 
	C392.132660,404.376038 395.048859,406.229004 397.289368,408.698090 
	C386.645782,409.000000 376.291534,409.000000 365.175873,408.685364 
	C365.279633,406.652527 366.419464,405.016968 366.965851,403.202698 
	C370.706818,390.781525 374.360443,378.333527 377.953888,365.868713 
	C378.855286,362.741821 379.434509,359.522003 380.155151,356.373962 
	C375.266357,355.233032 372.456635,355.991882 371.405670,360.957214 
	C369.946625,367.850830 367.865845,374.615021 365.988312,381.417297 
	C364.022766,388.538483 361.982666,395.639069 359.805176,403.350708 
	C359.020203,402.005920 358.557220,401.490906 358.395142,400.894165 
	C354.906128,388.049469 351.366364,375.217560 348.022644,362.334839 
	C346.211761,355.357819 345.656647,354.878510 338.104797,357.104797 
	C343.740692,374.415985 349.370361,391.708008 355.000000,409.000000 
	C347.979034,409.000000 340.958099,409.000000 333.468567,409.000000 
z"/>
<path fill="#000000" opacity="1.000000" stroke="none" 
	d="
M200.467941,409.000000 
	C197.571747,403.764160 195.223572,398.488953 192.676758,393.311432 
	C191.621857,391.166931 190.141693,389.231567 188.634537,386.853333 
	C196.186249,382.678345 199.293777,376.108337 197.853378,368.045044 
	C196.582947,360.933258 191.633530,356.753967 184.501663,355.168640 
	C210.508301,355.168640 236.514938,355.168640 262.521576,355.168640 
	C262.542328,355.318634 262.563049,355.468658 262.583771,355.618652 
	C261.423462,355.868652 260.263153,356.118622 259.007202,356.389191 
	C259.007202,373.214752 259.000122,389.836792 259.036133,406.458679 
	C259.037415,407.050903 259.464996,407.642181 259.346924,408.616943 
	C249.312439,409.000000 239.624878,409.000000 229.121765,408.617004 
	C228.537460,402.489441 228.754501,396.744263 229.010849,391.000824 
	C229.068497,389.709229 228.913391,388.251678 229.449310,387.162262 
	C234.434616,377.028442 239.549606,366.958405 245.064774,356.000000 
	C241.874329,356.000000 239.918121,356.198395 238.017746,355.957062 
	C234.489166,355.509003 232.430832,356.408691 231.189697,360.206909 
	C229.114243,366.558502 226.283783,372.663361 223.484100,379.581207 
	C220.013412,371.268311 216.828293,363.639435 213.759048,356.288086 
	C209.941895,356.288086 206.544983,356.288086 202.580811,356.288086 
	C206.037643,364.185120 209.238510,371.654572 212.578445,379.061310 
	C214.255066,382.779449 217.220886,386.236755 217.764053,390.072540 
	C218.641434,396.268585 217.999985,402.679718 218.000000,409.000000 
	C212.311966,409.000000 206.623917,409.000000 200.467941,409.000000 
z"/>
<path fill="#000000" opacity="1.000000" stroke="none" 
	d="
M28.467937,409.000000 
	C28.149523,408.368011 28.108681,407.337372 28.476206,407.161865 
	C39.957905,401.678589 42.064281,390.760406 33.059387,381.481995 
	C38.592297,377.086548 39.124607,371.109406 37.319756,364.937531 
	C35.383076,358.314789 29.719088,356.384766 23.583179,355.239197 
	C58.541019,355.239197 93.498856,355.239197 129.228699,355.239197 
	C121.959900,358.576416 122.857971,365.554901 121.173012,371.069855 
	C117.892441,381.807343 115.435623,392.798859 112.746452,403.711975 
	C112.387810,405.167389 112.662819,406.778961 112.322189,408.659119 
	C109.958336,409.000000 107.916664,409.000000 105.134125,408.634583 
	C104.928833,406.453796 105.906647,404.643707 105.928223,402.822266 
	C106.068184,391.008423 106.000000,379.192108 106.000000,367.376617 
	C106.000000,363.621033 106.000000,359.865448 106.000000,356.324188 
	C102.279160,356.324188 99.205933,356.324188 95.754532,356.324188 
	C95.754532,368.258087 95.754532,379.870361 95.754532,392.569916 
	C91.181503,382.505096 86.797310,373.620575 83.086029,364.463318 
	C79.671135,356.037354 79.985451,356.110779 70.978081,355.907898 
	C66.944618,355.816986 65.869659,357.148651 65.917908,361.062378 
	C66.114868,377.039520 66.000008,393.020447 66.000000,409.000000 
	C62.969406,409.000000 59.938812,409.000000 56.107189,408.616943 
	C55.537441,406.641876 55.959160,405.051056 55.968952,403.457733 
	C56.030365,393.464569 56.000000,383.470886 56.000000,373.477356 
	C56.000000,367.712524 56.000000,361.947662 56.000000,356.292542 
	C52.341957,356.292542 49.267670,356.292542 46.000000,356.292542 
	C46.000000,374.056152 46.000000,391.528076 46.000000,409.000000 
	C40.311958,409.000000 34.623920,409.000000 28.467937,409.000000 
z"/>
<path fill="#000000" opacity="1.000000" stroke="none" 
	d="
M601.468384,409.000000 
	C601.033936,408.487213 600.911804,407.604645 601.124268,407.515015 
	C609.515625,403.974915 612.057068,397.100555 612.005371,388.693665 
	C611.975647,383.862823 612.001831,379.031677 611.999634,374.200653 
	C611.995361,364.671448 607.870789,358.918976 597.978333,355.209076 
	C625.205933,355.209076 651.877319,355.209076 678.039612,355.209076 
	C675.573853,356.548126 672.017761,357.513672 670.045959,359.828644 
	C668.170044,362.031097 667.309448,365.607758 667.141418,368.643250 
	C666.844360,374.009216 671.059631,377.073425 674.781921,379.899963 
	C678.992859,383.097534 683.462769,386.060211 688.147339,388.495483 
	C692.072815,390.536194 693.068237,394.117249 691.642090,396.986969 
	C690.472290,399.340912 686.810181,401.316040 683.974609,401.788300 
	C679.293884,402.567780 674.388855,401.999969 668.833191,401.999969 
	C669.139282,404.273468 669.407715,406.266907 669.338013,408.630157 
	C665.638733,409.000000 662.277405,409.000000 658.111145,408.616943 
	C657.537415,406.641144 657.959656,405.049561 657.968994,403.455505 
	C658.029480,393.124634 658.000000,382.793213 658.000000,372.461975 
	C658.000000,367.022491 658.000000,361.583038 658.000000,356.296448 
	C655.344788,356.296448 653.274475,356.296448 650.795776,356.296448 
	C650.795776,369.231323 650.795776,381.873962 650.795776,394.516602 
	C644.631958,383.945435 639.556580,373.035156 633.748901,362.529663 
	C629.220154,354.337494 631.031006,355.631317 621.000000,356.588501 
	C621.000000,374.043427 621.000000,391.521729 621.000000,409.000000 
	C614.645569,409.000000 608.291199,409.000000 601.468384,409.000000 
z"/>
<path fill="#FFFFFF" opacity="1.000000" stroke="none" 
	d="
M66.449982,409.000000 
	C66.000008,393.020447 66.114868,377.039520 65.917908,361.062378 
	C65.869659,357.148651 66.944618,355.816986 70.978081,355.907898 
	C79.985451,356.110779 79.671135,356.037354 83.086029,364.463318 
	C86.797310,373.620575 91.181503,382.505096 95.754532,392.569916 
	C95.754532,379.870361 95.754532,368.258087 95.754532,356.324188 
	C99.205933,356.324188 102.279160,356.324188 106.000000,356.324188 
	C106.000000,359.865448 106.000000,363.621033 106.000000,367.376617 
	C106.000000,379.192108 106.068184,391.008423 105.928223,402.822266 
	C105.906647,404.643707 104.928833,406.453796 104.696625,408.634583 
	C100.975456,409.000000 96.950912,409.000000 92.754433,408.694336 
	C89.723480,402.469086 86.798759,396.580170 84.023735,390.621490 
	C81.185486,384.527161 78.494041,378.364441 75.738335,372.231689 
	C75.492226,372.337555 75.246109,372.443420 75.000000,372.549316 
	C75.000000,384.699524 75.000000,396.849762 75.000000,409.000000 
	C72.299988,409.000000 69.599968,409.000000 66.449982,409.000000 
z"/>
<path fill="#FFFFFF" opacity="1.000000" stroke="none" 
	d="
M621.437500,409.000000 
	C621.000000,391.521729 621.000000,374.043427 621.000000,356.588501 
	C631.031006,355.631317 629.220154,354.337494 633.748901,362.529663 
	C639.556580,373.035156 644.631958,383.945435 650.795776,394.516602 
	C650.795776,381.873962 650.795776,369.231323 650.795776,356.296448 
	C653.274475,356.296448 655.344788,356.296448 658.000000,356.296448 
	C658.000000,361.583038 658.000000,367.022491 658.000000,372.461975 
	C658.000000,382.793213 658.029480,393.124634 657.968994,403.455505 
	C657.959656,405.049561 657.537415,406.641144 657.653076,408.616943 
	C655.299988,409.000000 652.599976,409.000000 649.749512,408.703308 
	C642.595215,395.035431 635.591248,381.664246 628.000000,367.171783 
	C628.000000,382.046448 628.000000,395.523224 628.000000,409.000000 
	C625.958313,409.000000 623.916687,409.000000 621.437500,409.000000 
z"/>
<path fill="#FFFFFF" opacity="1.000000" stroke="none" 
	d="
M218.458069,409.000000 
	C217.999985,402.679718 218.641434,396.268585 217.764053,390.072540 
	C217.220886,386.236755 214.255066,382.779449 212.578445,379.061310 
	C209.238510,371.654572 206.037643,364.185120 202.580811,356.288086 
	C206.544983,356.288086 209.941895,356.288086 213.759048,356.288086 
	C216.828293,363.639435 220.013412,371.268311 223.484100,379.581207 
	C226.283783,372.663361 229.114243,366.558502 231.189697,360.206909 
	C232.430832,356.408691 234.489166,355.509003 238.017746,355.957062 
	C239.918121,356.198395 241.874329,356.000000 245.064774,356.000000 
	C239.549606,366.958405 234.434616,377.028442 229.449310,387.162262 
	C228.913391,388.251678 229.068497,389.709229 229.010849,391.000824 
	C228.754501,396.744263 228.537460,402.489441 228.653107,408.617004 
	C225.638718,409.000000 222.277420,409.000000 218.458069,409.000000 
z"/>
<path fill="#FFFFFF" opacity="1.000000" stroke="none" 
	d="
M479.467590,409.000000 
	C478.533020,408.294098 478.226105,407.230255 477.573853,406.938568 
	C472.024750,404.456909 469.456451,399.431427 469.201263,394.180481 
	C468.589966,381.601318 469.003723,368.972351 469.003723,356.189819 
	C471.471649,356.189819 473.538971,356.189819 476.000000,356.189819 
	C476.000000,367.653778 475.970093,378.932404 476.011261,390.210754 
	C476.035645,396.890564 478.304413,400.163879 483.841614,402.023285 
	C492.079712,404.789734 498.064636,398.583252 498.020111,391.837494 
	C497.946533,380.685211 497.998810,369.532104 498.006470,358.379333 
	C498.006927,357.740784 498.082916,357.102295 498.138153,356.239014 
	C500.371948,356.239014 502.437256,356.239014 504.990692,356.239014 
	C504.990692,369.361938 505.291809,382.470734 504.855133,395.554962 
	C504.656799,401.497711 499.829681,405.035706 495.713043,408.708862 
	C490.645081,409.000000 485.290131,409.000000 479.467590,409.000000 
z"/>
<path fill="#FFFFFF" opacity="1.000000" stroke="none" 
	d="
M355.454102,409.000000 
	C349.370361,391.708008 343.740692,374.415985 338.104797,357.104797 
	C345.656647,354.878510 346.211761,355.357819 348.022644,362.334839 
	C351.366364,375.217560 354.906128,388.049469 358.395142,400.894165 
	C358.557220,401.490906 359.020203,402.005920 359.805176,403.350708 
	C361.982666,395.639069 364.022766,388.538483 365.988312,381.417297 
	C367.865845,374.615021 369.946625,367.850830 371.405670,360.957214 
	C372.456635,355.991882 375.266357,355.233032 380.155151,356.373962 
	C379.434509,359.522003 378.855286,362.741821 377.953888,365.868713 
	C374.360443,378.333527 370.706818,390.781525 366.965851,403.202698 
	C366.419464,405.016968 365.279633,406.652527 364.707214,408.685364 
	C361.969391,409.000000 358.938812,409.000000 355.454102,409.000000 
z"/>
<path fill="#000000" opacity="1.000000" stroke="none" 
	d="
M295.466125,409.000000 
	C292.502838,403.667664 290.114105,398.280548 287.461823,393.026520 
	C286.174438,390.476227 284.393524,388.175079 282.831146,385.753571 
	C292.485809,380.564606 295.116455,375.955811 292.847382,365.511932 
	C291.422119,358.951965 285.829468,356.366547 279.545593,355.207336 
	C290.529877,355.207336 301.514160,355.207336 313.774536,355.207336 
	C305.075592,357.598785 302.586060,362.934998 302.929443,370.413147 
	C303.256958,377.546448 303.395599,384.734772 302.889191,391.847076 
	C302.378448,399.020599 304.316437,404.600525 310.287354,408.705627 
	C305.310760,409.000000 300.621490,409.000000 295.466125,409.000000 
z"/>
<path fill="#000000" opacity="1.000000" stroke="none" 
	d="
M155.428467,409.000000 
	C152.790894,399.266571 150.654358,389.515869 148.344315,379.806458 
	C147.045288,374.346466 145.700089,368.873596 143.909561,363.563721 
	C142.902542,360.577393 140.947250,357.910828 139.534958,355.313171 
	C147.442764,355.313171 156.432907,355.313171 165.423065,355.313171 
	C165.444351,355.415771 165.465637,355.518341 165.486923,355.620941 
	C164.053970,355.844208 162.621017,356.067444 161.007004,356.318939 
	C161.007004,373.165985 160.999924,389.810730 161.035950,406.455322 
	C161.037231,407.048645 161.464890,407.641022 161.346924,408.616943 
	C159.285645,409.000000 157.571289,409.000000 155.428467,409.000000 
z"/>
<path fill="#FFFFFF" opacity="1.000000" stroke="none" 
	d="
M527.437500,409.000000 
	C527.000000,393.524567 527.000000,378.049103 527.000000,362.170593 
	C522.056641,362.170593 517.306274,362.170593 512.283447,362.170593 
	C512.283447,360.036591 512.283447,358.297424 512.283447,356.276672 
	C524.245667,356.276672 536.329834,356.276672 548.798462,356.276672 
	C548.874695,357.939636 548.954529,359.680359 549.052307,361.813660 
	C544.106140,361.813660 539.348999,361.813660 534.000000,361.813660 
	C534.000000,372.609894 534.071533,383.036102 533.968689,393.460602 
	C533.920044,398.386719 533.537415,403.309570 533.653076,408.616943 
	C531.958313,409.000000 529.916687,409.000000 527.437500,409.000000 
z"/>
<path fill="#FFFFFF" opacity="1.000000" stroke="none" 
	d="
M46.454109,409.000000 
	C46.000000,391.528076 46.000000,374.056152 46.000000,356.292542 
	C49.267670,356.292542 52.341957,356.292542 56.000000,356.292542 
	C56.000000,361.947662 56.000000,367.712524 56.000000,373.477356 
	C56.000000,383.470886 56.030365,393.464569 55.968952,403.457733 
	C55.959160,405.051056 55.537441,406.641876 55.653080,408.616943 
	C52.969406,409.000000 49.938812,409.000000 46.454109,409.000000 
z"/>
<path fill="#FFFFFF" opacity="1.000000" stroke="none" 
	d="
M439.468628,409.000000 
	C438.969940,408.482513 439.127625,407.635712 438.882294,407.495819 
	C433.149200,404.227173 432.941193,398.785004 432.976440,393.125885 
	C433.052856,380.858490 433.000000,368.590240 433.000000,356.163727 
	C435.389832,356.163727 437.345673,356.163727 440.000000,356.163727 
	C440.000000,360.123657 440.000000,364.203949 440.000000,368.284210 
	C440.000000,376.437866 439.982635,384.591583 440.004974,392.745178 
	C440.026093,400.456116 441.547516,401.999725 449.011810,401.999969 
	C453.483643,402.000092 457.955505,402.000000 463.170715,402.000000 
	C462.862762,404.276642 462.593323,406.268463 462.661926,408.630127 
	C455.312408,409.000000 447.624847,409.000000 439.468628,409.000000 
z"/>
<path fill="#000000" opacity="1.000000" stroke="none" 
	d="
M628.468506,409.000000 
	C628.000000,395.523224 628.000000,382.046448 628.000000,367.171783 
	C635.591248,381.664246 642.595215,395.035431 649.299561,408.703308 
	C642.312378,409.000000 635.624695,409.000000 628.468506,409.000000 
z"/>
<path fill="#000000" opacity="1.000000" stroke="none" 
	d="
M699.000000,387.531342 
	C696.973450,386.331146 695.053284,384.507751 692.898315,383.025543 
	C688.394043,379.927429 683.750854,377.032043 679.194702,374.008362 
	C676.566956,372.264526 673.932068,370.641144 674.700195,366.617798 
	C675.597717,361.916687 678.983215,362.079712 682.486389,361.979065 
	C687.737793,361.828217 692.985107,361.537445 698.617065,361.653076 
	C699.000000,370.354218 699.000000,378.708466 699.000000,387.531342 
z"/>
<path fill="#FFFFFF" opacity="1.000000" stroke="none" 
	d="
M557.437500,409.000000 
	C557.000000,391.526245 557.000000,374.052490 557.000000,356.289795 
	C559.285645,356.289795 561.355469,356.289795 564.000000,356.289795 
	C564.000000,362.260193 564.000000,368.365906 564.000000,374.471588 
	C564.000000,384.133453 564.031311,393.795532 563.968872,403.456970 
	C563.958618,405.050629 563.537415,406.641663 563.653076,408.616943 
	C561.958313,409.000000 559.916687,409.000000 557.437500,409.000000 
z"/>
<path fill="#000000" opacity="1.000000" stroke="none" 
	d="
M266.468536,409.000000 
	C266.000000,401.387604 266.000000,393.775177 266.000000,386.215210 
	C266.527405,386.146973 266.691193,386.117188 266.856262,386.105621 
	C276.794556,385.409180 278.979828,393.785461 282.962708,399.976013 
	C284.693542,402.666260 286.066345,405.586792 287.300903,408.701355 
	C280.312347,409.000000 273.624725,409.000000 266.468536,409.000000 
z"/>
<path fill="#000000" opacity="1.000000" stroke="none" 
	d="
M75.467606,409.000000 
	C75.000000,396.849762 75.000000,384.699524 75.000000,372.549316 
	C75.246109,372.443420 75.492226,372.337555 75.738335,372.231689 
	C78.494041,378.364441 81.185486,384.527161 84.023735,390.621490 
	C86.798759,396.580170 89.723480,402.469086 92.291245,408.694336 
	C86.645073,409.000000 81.290138,409.000000 75.467606,409.000000 
z"/>
<path fill="#000000" opacity="1.000000" stroke="none" 
	d="
M123.468582,409.000000 
	C123.796577,404.728760 124.437485,400.417816 125.509735,396.216949 
	C125.748970,395.279633 127.498833,394.722046 128.567307,394.010803 
	C128.682159,393.934326 128.891983,394.005920 129.057373,393.999237 
	C141.203293,393.508545 141.181976,393.513611 144.039734,405.371368 
	C144.293182,406.423004 145.064224,407.349915 145.297424,408.667358 
	C137.979050,409.000000 130.958099,409.000000 123.468582,409.000000 
z"/>
<path fill="#000000" opacity="1.000000" stroke="none" 
	d="
M171.467606,409.000000 
	C171.000000,402.185974 171.000000,395.371948 171.000000,388.527130 
	C175.927490,386.711243 178.580246,388.727753 180.568039,392.990051 
	C183.013763,398.234253 185.904892,403.270691 188.301758,408.698486 
	C182.645065,409.000000 177.290146,409.000000 171.467606,409.000000 
z"/>
<path fill="#000000" opacity="1.000000" stroke="none" 
	d="
M691.494751,409.000000 
	C691.124634,408.383698 691.033325,407.520874 691.409302,407.191498 
	C693.681091,405.201324 696.059875,403.333130 698.701416,401.712067 
	C699.000000,404.254578 699.000000,406.509125 699.000000,409.000000 
	C696.665710,409.000000 694.327576,409.000000 691.494751,409.000000 
z"/>
<path fill="#000000" opacity="1.000000" stroke="none" 
	d="
M699.000000,355.750000 
	C697.156494,356.000000 695.312988,356.000000 693.469482,356.000000 
	C693.473511,355.666656 693.477600,355.333344 693.481689,355.000000 
	C695.039612,355.000000 696.597473,355.000000 698.577637,355.000000 
	C699.000000,355.000000 699.000000,355.500000 699.000000,355.750000 
z"/>
<path fill="#8DC543" opacity="1.000000" stroke="none" 
	d="
M437.024261,312.120209 
	C436.765747,316.879425 432.486877,315.342285 430.500275,315.373413 
	C417.066620,315.583649 403.622040,314.997742 390.184509,315.106476 
	C385.391174,315.145264 384.046661,312.902161 384.010742,308.859802 
	C383.970978,304.388641 384.001648,299.916840 384.001648,294.358887 
	C340.278625,322.017059 295.976227,322.597046 251.639969,298.673065 
	C228.767609,286.331055 213.343140,266.478485 201.936630,242.734406 
	C205.712509,242.095428 208.849091,241.403397 212.023361,241.055756 
	C224.892181,239.646378 237.762436,238.232727 250.652893,237.045685 
	C257.323669,236.431412 262.856201,239.583923 267.397827,243.966522 
	C278.607544,254.783630 292.125122,261.370911 307.256927,262.658752 
	C324.511810,264.127197 340.942017,259.836639 355.183380,249.178055 
	C363.984161,242.591370 371.205353,234.680862 375.741547,224.542877 
	C377.750305,220.053436 381.873688,218.755173 386.084198,217.971176 
	C402.732208,214.871368 419.414520,211.955765 436.511810,209.506165 
	C436.967773,244.067062 436.996002,278.093628 437.024261,312.120209 
z"/>
<path fill="#2F59A8" opacity="1.000000" stroke="none" 
	d="
M506.830139,109.911697 
	C506.888702,110.572418 506.907806,111.239426 507.011780,111.892937 
	C508.537384,121.481560 507.714111,121.907356 497.937103,123.112854 
	C480.064301,125.316566 464.840088,133.087357 453.941620,147.679031 
	C448.823151,154.532089 443.464966,161.908234 441.067047,169.902679 
	C438.429443,178.696274 434.483887,182.403458 425.432251,183.533905 
	C412.877197,185.101868 400.542603,188.429901 388.106537,190.969589 
	C387.320526,191.130127 386.473175,190.990463 384.935120,190.990463 
	C383.008362,165.206131 371.592987,144.956863 349.094086,131.771866 
	C326.476959,118.517601 303.426300,119.262108 280.000488,131.237320 
	C280.000488,117.562843 280.002869,104.619743 279.999146,91.676651 
	C279.997894,87.329292 279.600616,82.932053 280.160645,78.659355 
	C280.381622,76.972931 282.534851,74.482681 284.125336,74.210335 
	C292.308044,72.809158 300.569366,71.669022 308.848969,71.074944 
	C323.880493,69.996414 338.531189,72.409355 352.867584,76.925598 
	C370.099030,82.353844 385.184387,91.280617 397.808563,104.280167 
	C401.727234,108.315361 405.736908,112.262192 409.856628,116.401909 
	C417.765228,109.254265 425.251465,102.313316 432.928345,95.590034 
	C445.228790,84.817513 459.627014,78.224251 475.573608,75.001213 
	C483.056915,73.488716 490.591919,72.167274 498.156952,71.161316 
	C500.584991,70.838448 503.184296,71.803749 505.851807,73.015778 
	C505.993286,81.966583 505.899200,90.082657 506.021667,98.195473 
	C506.080658,102.104057 506.547760,106.006485 506.830139,109.911697 
z"/>
<path fill="#000000" opacity="1.000000" stroke="none" 
	d="
M417.000000,381.999237 
	C416.646332,386.711639 416.853180,391.085022 415.778076,395.116547 
	C414.746399,398.985107 411.908325,401.813538 407.306458,402.023529 
	C402.204926,402.256409 397.178955,402.282562 395.129547,396.337677 
	C391.845856,386.812347 391.846130,377.189240 395.128906,367.663727 
	C397.177612,361.719086 402.202728,361.743378 407.304932,361.976257 
	C411.906647,362.186340 414.745544,365.013397 415.777527,368.881989 
	C416.852936,372.913422 416.646179,377.286835 417.000000,381.999237 
z"/>
<path fill="#000000" opacity="1.000000" stroke="none" 
	d="
M584.240967,398.620239 
	C579.488037,388.821136 580.162964,378.945068 582.419983,369.220734 
	C583.789001,363.322357 587.050659,361.944305 594.432007,361.976898 
	C599.883240,362.000946 603.435486,364.962585 603.854004,369.929565 
	C604.517761,377.807159 605.216431,385.994110 603.787964,393.656342 
	C602.022034,403.128235 592.065369,405.367065 584.240967,398.620239 
z"/>
<path fill="#000000" opacity="1.000000" stroke="none" 
	d="
M266.000000,369.049500 
	C266.000000,366.583496 266.000000,364.607056 266.000000,362.015411 
	C270.384521,362.015411 274.665771,361.626099 278.845459,362.111328 
	C284.399139,362.756104 286.288422,365.776520 285.999908,372.145081 
	C285.783295,376.926819 283.164612,379.625214 277.938202,379.952972 
	C274.160736,380.189880 270.356445,379.999146 266.000000,379.999146 
	C266.000000,376.383484 266.000000,372.961273 266.000000,369.049500 
z"/>
<path fill="#000000" opacity="1.000000" stroke="none" 
	d="
M11.380345,385.407288 
	C15.251191,385.319336 18.809929,385.448425 22.334082,385.868011 
	C27.155535,386.442017 28.196562,389.936829 27.963533,394.003998 
	C27.702335,398.562897 24.003603,399.414856 20.563005,399.912750 
	C17.653757,400.333740 14.635215,399.999481 11.052821,399.999481 
	C11.052821,395.195038 11.052821,390.474457 11.380345,385.407288 
z"/>
<path fill="#000000" opacity="1.000000" stroke="none" 
	d="
M178.645142,379.987122 
	C171.000580,379.983459 171.000504,379.983459 171.000031,373.134766 
	C170.999817,370.200684 171.000000,367.266632 171.000000,364.000000 
	C173.700775,364.000000 175.977097,363.979828 178.252960,364.004120 
	C183.410599,364.059113 186.642960,366.347015 186.998993,370.166229 
	C187.554672,376.126648 186.402267,377.678467 180.334427,379.234497 
	C179.882141,379.350464 179.495605,379.722748 178.645142,379.987122 
z"/>
<path fill="#000000" opacity="1.000000" stroke="none" 
	d="
M11.000010,372.900543 
	C11.000000,369.791992 11.000000,367.163208 11.000000,363.386566 
	C15.937893,364.130859 20.651876,364.327850 24.951382,365.764923 
	C26.479059,366.275513 28.176222,370.143494 27.675709,371.860809 
	C27.075846,373.919006 24.459810,376.014801 22.254059,376.809265 
	C19.904461,377.655579 16.991877,376.785950 14.365225,377.055908 
	C11.324512,377.368469 10.597095,376.000153 11.000010,372.900543 
z"/>
<path fill="#138169" opacity="1.000000" stroke="none" 
	d="
M243.890945,188.481003 
	C243.564865,186.350357 243.060303,183.757706 243.057861,181.164597 
	C243.002213,122.060600 243.001450,62.956566 243.016815,3.378673 
	C243.362869,4.415168 243.961304,5.925393 243.962021,7.435901 
	C243.990585,67.630180 243.964981,127.824486 243.890945,188.481003 
z"/>
<path fill="#05231C" opacity="1.000000" stroke="none" 
	d="
M192.506927,5.202973 
	C192.922318,49.062466 192.963913,93.132370 192.996628,137.202271 
	C193.009720,154.830765 193.003281,172.459274 192.951447,190.554932 
	C192.593430,189.848099 192.024673,188.674255 192.023941,187.500061 
	C191.986481,127.300621 191.997055,67.101143 192.008301,6.901673 
	C192.008392,6.405569 192.087387,5.909479 192.506927,5.202973 
z"/>
<path fill="#000000" opacity="1.000000" stroke="none" 
	d="
M136.020874,372.873962 
	C137.100433,376.982788 138.161865,380.668671 139.329117,384.721985 
	C135.327789,384.721985 131.760696,384.721985 128.083893,384.721985 
	C129.775421,377.824036 131.447083,371.007050 133.118759,364.190063 
	C133.377701,364.180511 133.636642,364.170959 133.895584,364.161377 
	C134.597977,366.924591 135.300369,369.687775 136.020874,372.873962 
z"/>
<path fill="#263512" opacity="1.000000" stroke="none" 
	d="
M437.421082,311.918457 
	C436.996002,278.093628 436.967773,244.067062 436.938477,209.580994 
	C437.293488,209.885437 437.960968,210.649460 437.960724,211.413284 
	C437.950104,244.847763 437.880463,278.282227 437.421082,311.918457 
z"/>
<path fill="#142647" opacity="1.000000" stroke="none" 
	d="
M506.886780,109.452042 
	C506.547760,106.006485 506.080658,102.104057 506.021667,98.195473 
	C505.899200,90.082657 505.993286,81.966583 506.019592,73.377869 
	C506.355591,74.061172 506.937744,75.217079 506.943726,76.375961 
	C506.999847,87.247810 506.957367,98.120171 506.886780,109.452042 
z"/>
</svg>